<svg width="14" height="14" viewBox="0 0 14 14" fill="none" xmlns="http://www.w3.org/2000/svg">
<g clip-path="url(#clip0_1222_42005)">
<path d="M6.99979 6.43287L6.99973 10.4033C6.99973 11.9077 5.78013 13.1273 4.27568 13.1273C2.77123 13.1273 1.55163 11.9077 1.55163 10.4033C1.55163 10.3262 1.55483 10.2499 1.56111 10.1744C0.994177 9.56537 0.636475 8.37401 0.636475 7.38C0.636475 6.0255 1.30063 4.70855 2.25334 4.19089C2.2442 4.10613 2.23951 4.02005 2.23951 3.93287C2.23951 2.61836 3.30514 1.55273 4.61965 1.55273C5.20499 1.55273 5.74097 1.76403 6.1555 2.1145" stroke="black" stroke-linecap="round" stroke-linejoin="round"/>
<path d="M3.51115 5.80859C3.16167 5.72892 2.36973 5.20955 2.25024 4.19702" stroke="black" stroke-linecap="round" stroke-linejoin="round"/>
<path d="M2.28949 8.74634C1.93393 9.02708 1.65044 9.66332 1.55859 10.173" stroke="black" stroke-linecap="round" stroke-linejoin="round"/>
<path d="M7.00003 10.4033C7.00003 11.9077 8.21963 13.1273 9.72408 13.1273C11.2285 13.1273 12.4481 11.9077 12.4481 10.4033C12.4481 10.3262 12.4449 10.2499 12.4386 10.1744C13.0056 9.56536 13.3633 8.37401 13.3633 7.38C13.3633 6.94595 13.2951 6.51577 13.171 6.1145" stroke="black" stroke-linecap="round" stroke-linejoin="round"/>
<path d="M11.7103 8.74634C12.0658 9.02708 12.3493 9.66332 12.4412 10.173" stroke="black" stroke-linecap="round" stroke-linejoin="round"/>
<path d="M7.06434 4.30651C6.71342 4.24546 6.71341 3.74168 7.06434 3.68063C8.3357 3.45945 9.34689 2.49108 9.62284 1.23048L9.64399 1.13385C9.71992 0.787017 10.2138 0.784858 10.2927 1.13102L10.3184 1.24362C10.6046 2.49828 11.616 3.45847 12.8839 3.67903C13.2366 3.7404 13.2366 4.24674 12.8839 4.3081C11.616 4.52867 10.6046 5.48886 10.3184 6.74351L10.2927 6.85612C10.2138 7.20228 9.71992 7.20012 9.64399 6.85329L9.62284 6.75666C9.34689 5.49605 8.3357 4.52769 7.06434 4.30651Z" stroke="black" stroke-linecap="round" stroke-linejoin="round"/>
</g>
<defs>
<clipPath id="clip0_1222_42005">
<rect width="14" height="14" fill="white"/>
</clipPath>
</defs>
</svg>
