<svg width="14" height="14" viewBox="0 0 14 14" fill="none" xmlns="http://www.w3.org/2000/svg">
<g clip-path="url(#clip0_1222_15875)">
<path d="M10.5764 9.62903C10.5764 10.1813 10.1286 10.629 9.57635 10.629H1.57635C1.31114 10.629 1.05678 10.5237 0.869248 10.3361C0.681712 10.1486 0.576355 9.89424 0.576355 9.62903V1.62903C0.576355 1.36381 0.681712 1.10946 0.869248 0.921922C1.05678 0.734385 1.31114 0.629028 1.57635 0.629028H9.57635C9.84157 0.629028 10.0959 0.734385 10.2835 0.921922C10.471 1.10946 10.5764 1.36381 10.5764 1.62903V9.62903Z" fill="#D541A3" fill-opacity="0.24"/>
<path d="M0.576355 6.73293C0.953962 6.66467 1.34292 6.62903 1.74019 6.62903C3.31961 6.62903 4.76745 7.19235 5.89377 8.12903" stroke="#D541A3" stroke-linecap="round" stroke-linejoin="round"/>
<path d="M5.07635 10.629H1.57635C1.31114 10.629 1.05678 10.5237 0.869248 10.3361C0.681712 10.1486 0.576355 9.89424 0.576355 9.62903V1.62903C0.576355 1.36381 0.681712 1.10946 0.869248 0.921922C1.05678 0.734385 1.31114 0.629028 1.57635 0.629028H9.57635C9.84157 0.629028 10.0959 0.734385 10.2835 0.921922C10.471 1.10946 10.5764 1.36381 10.5764 1.62903V5.12903" stroke="#D541A3" stroke-linecap="round" stroke-linejoin="round"/>
<path d="M6.32635 5.62903C7.01671 5.62903 7.57635 5.06938 7.57635 4.37903C7.57635 3.68867 7.01671 3.12903 6.32635 3.12903C5.636 3.12903 5.07635 3.68867 5.07635 4.37903C5.07635 5.06938 5.636 5.62903 6.32635 5.62903Z" stroke="#D541A3" stroke-linecap="round" stroke-linejoin="round"/>
<path d="M7.33955 10.563C6.98862 10.5019 6.98862 9.99815 7.33955 9.9371C8.61091 9.71592 9.6221 8.74755 9.89805 7.48695L9.9192 7.39032C9.99513 7.04349 10.489 7.04133 10.5679 7.38748L10.5936 7.50009C10.8798 8.75475 11.8912 9.71493 13.1591 9.9355C13.5118 9.99687 13.5118 10.5032 13.1591 10.5646C11.8912 10.7851 10.8798 11.7453 10.5936 13L10.5679 13.1126C10.489 13.4587 9.99513 13.4566 9.9192 13.1098L9.89805 13.0131C9.6221 11.7525 8.61091 10.7842 7.33955 10.563Z" stroke="#D541A3" stroke-linecap="round" stroke-linejoin="round"/>
</g>
<defs>
<clipPath id="clip0_1222_15875">
<rect width="14" height="14" fill="white"/>
</clipPath>
</defs>
</svg>
