<svg width="14" height="14" viewBox="0 0 14 14" fill="none" xmlns="http://www.w3.org/2000/svg">
<g clip-path="url(#clip0_1222_15908)">
<path d="M11.0139 3.46069H2.01392C1.46163 3.46069 1.01392 3.90841 1.01392 4.46069V5.96069H12.0139V4.46069C12.0139 3.90841 11.5662 3.46069 11.0139 3.46069Z" fill="#D541A3" fill-opacity="0.24"/>
<path d="M4.58709 3.46069H2.01392C1.7487 3.46069 1.49435 3.56605 1.30681 3.75359C1.11927 3.94112 1.01392 4.19548 1.01392 4.46069V12.4607C1.01392 12.7259 1.11927 12.9803 1.30681 13.1678C1.49435 13.3553 1.7487 13.4607 2.01392 13.4607H11.0139C11.5662 13.4607 12.0139 13.013 12.0139 12.4607V8.46069" stroke="#D541A3" stroke-linecap="round" stroke-linejoin="round"/>
<path d="M1.01392 5.96069H6.26445" stroke="#D541A3" stroke-linecap="round" stroke-linejoin="round"/>
<path d="M3.51392 10.9607L5.01392 9.46069L3.51392 7.96069" stroke="#D541A3" stroke-linecap="round" stroke-linejoin="round"/>
<path d="M6.51392 10.9607H8.01392" stroke="#D541A3" stroke-linecap="round" stroke-linejoin="round"/>
<path d="M6.90205 3.97326C6.55112 3.9122 6.55112 3.40843 6.90205 3.34738C8.17341 3.1262 9.1846 2.15783 9.46055 0.897228L9.4817 0.800599C9.55763 0.453766 10.0515 0.451607 10.1304 0.797763L10.1561 0.910373C10.4423 2.16503 11.4537 3.12521 12.7216 3.34578C13.0743 3.40714 13.0743 3.91349 12.7216 3.97485C11.4537 4.19542 10.4423 5.15561 10.1561 6.41026L10.1304 6.52287C10.0515 6.86903 9.55763 6.86687 9.4817 6.52003L9.46055 6.42341C9.1846 5.1628 8.17341 4.19444 6.90205 3.97326Z" stroke="#D541A3" stroke-linecap="round" stroke-linejoin="round"/>
</g>
<defs>
<clipPath id="clip0_1222_15908">
<rect width="14" height="14" fill="white"/>
</clipPath>
</defs>
</svg>
