<svg width="14" height="14" viewBox="0 0 14 14" fill="none" xmlns="http://www.w3.org/2000/svg">
<g clip-path="url(#clip0_1222_15893)">
<path d="M6.51801 13.2209C9.83171 13.2209 12.518 10.5347 12.518 7.22095C12.518 3.90724 9.83171 1.22095 6.51801 1.22095C3.2043 1.22095 0.518005 3.90724 0.518005 7.22095C0.518005 10.5347 3.2043 13.2209 6.51801 13.2209Z" fill="#D541A3" fill-opacity="0.24"/>
<path d="M12.5178 7.22083C12.5178 10.5345 9.83153 13.2208 6.51782 13.2208C3.20411 13.2208 0.517822 10.5345 0.517822 7.22083C0.517822 3.90712 3.20411 1.22083 6.51782 1.22083" stroke="#D541A3" stroke-linecap="round" stroke-linejoin="round"/>
<path d="M0.517822 7.22083H7.4409" stroke="#D541A3" stroke-linecap="round" stroke-linejoin="round"/>
<path d="M6.51784 1.22083C5.13167 2.92543 4.3235 5.02668 4.21014 7.22083C4.3235 9.41497 5.13167 11.5162 6.51784 13.2208C7.60915 11.8788 8.34221 10.2909 8.66001 8.60544" stroke="#D541A3" stroke-linecap="round" stroke-linejoin="round"/>
<path d="M7.39815 4.21312C7.04722 4.15207 7.04722 3.6483 7.39815 3.58724C8.6695 3.36606 9.68069 2.3977 9.95664 1.1371L9.9778 1.04047C10.0537 0.693634 10.5476 0.691475 10.6265 1.03763L10.6522 1.15024C10.9384 2.40489 11.9498 3.36508 13.2177 3.58565C13.5704 3.64701 13.5704 4.15336 13.2177 4.21472C11.9498 4.43529 10.9384 5.39547 10.6522 6.65013L10.6265 6.76274C10.5476 7.10889 10.0537 7.10673 9.9778 6.7599L9.95664 6.66327C9.68069 5.40267 8.6695 4.43431 7.39815 4.21312Z" fill="#D541A3"/>
<path d="M7.39815 4.21312C7.04722 4.15207 7.04722 3.6483 7.39815 3.58724C8.6695 3.36606 9.68069 2.3977 9.95664 1.1371L9.9778 1.04047C10.0537 0.693634 10.5476 0.691475 10.6265 1.03763L10.6522 1.15024C10.9384 2.40489 11.9498 3.36508 13.2177 3.58565C13.5704 3.64701 13.5704 4.15336 13.2177 4.21472C11.9498 4.43529 10.9384 5.39547 10.6522 6.65013L10.6265 6.76274C10.5476 7.10889 10.0537 7.10673 9.9778 6.7599L9.95664 6.66327C9.68069 5.40267 8.6695 4.43431 7.39815 4.21312Z" stroke="#D541A3" stroke-linecap="round" stroke-linejoin="round"/>
</g>
<defs>
<clipPath id="clip0_1222_15893">
<rect width="14" height="14" fill="white"/>
</clipPath>
</defs>
</svg>
